
<svg version="1.0" xmlns="http://www.w3.org/2000/svg"
 width="920.000000pt" height="920.000000pt" viewBox="0 0 920.000000 920.000000"
 preserveAspectRatio="xMidYMid meet">

<g transform="translate(0.000000,920.000000) scale(0.100000,-0.100000)"
fill="#fff" stroke="none">
<path d="M1313 8040 c-317 -47 -586 -274 -694 -588 l-34 -97 -3 -1662 -2
-1663 285 0 285 0 0 1150 0 1150 3450 0 3450 0 0 -2185 c0 -2153 0 -2185 -20
-2237 -25 -67 -79 -124 -150 -157 l-55 -26 -462 -3 -463 -3 0 -285 0 -285 498
3 c477 4 500 5 577 26 307 85 522 299 621 617 18 58 19 152 19 2805 0 2653 -1
2747 -19 2805 -66 211 -186 382 -351 495 -66 45 -178 96 -270 122 l-80 23
-3265 1 c-1796 1 -3288 -2 -3317 -6z m6551 -580 c63 -23 142 -102 165 -166 18
-47 21 -78 21 -224 l0 -170 -3450 0 -3450 0 0 170 c0 222 18 274 121 352 79
61 -153 57 3349 55 2783 -2 3210 -4 3244 -17z"/>
<path d="M3426 3978 c-4 -22 -31 -152 -61 -287 -29 -135 -133 -613 -230 -1061
-97 -448 -209 -963 -249 -1145 l-71 -330 289 -3 c159 -1 291 -1 293 1 3 4 69
301 138 622 19 88 71 327 115 530 44 204 96 442 115 530 19 88 53 243 75 345
67 304 180 829 180 835 0 3 -132 5 -294 5 l-293 0 -7 -42z"/>
<path d="M1315 3290 l-700 -700 705 -705 705 -705 202 202 202 202 -497 498
c-273 274 -498 502 -500 506 -1 4 223 232 498 507 l500 500 -197 197 c-109
109 -202 198 -208 198 -5 0 -325 -315 -710 -700z"/>
<path d="M4685 3790 l-200 -200 503 -503 502 -502 -502 -503 -503 -502 200
-199 200 -200 707 703 707 702 -702 702 c-386 386 -704 702 -707 702 -3 0 -95
-90 -205 -200z"/>
</g>
</svg>
